<?xml version="1.0" encoding="UTF-8" standalone="no"?>
<!-- Created with Inkscape (http://www.inkscape.org/) -->

<svg
   xmlns:dc="http://purl.org/dc/elements/1.1/"
   xmlns:cc="http://creativecommons.org/ns#"
   xmlns:rdf="http://www.w3.org/1999/02/22-rdf-syntax-ns#"
   xmlns:svg="http://www.w3.org/2000/svg"
   xmlns="http://www.w3.org/2000/svg"
   xmlns:sodipodi="http://sodipodi.sourceforge.net/DTD/sodipodi-0.dtd"
   xmlns:inkscape="http://www.inkscape.org/namespaces/inkscape"
   width="67mm"
   height="67mm"
   viewBox="0 0 67 67"
   version="1.1"
   id="svg4633"
   inkscape:version="0.92.1 r15371"
   sodipodi:docname="avatar.svg">
  <defs
     id="defs4627" />
  <sodipodi:namedview
     id="base"
     pagecolor="#ffffff"
     bordercolor="#666666"
     borderopacity="1.0"
     inkscape:pageopacity="0.0"
     inkscape:pageshadow="2"
     inkscape:zoom="0.35"
     inkscape:cx="-310"
     inkscape:cy="560"
     inkscape:document-units="mm"
     inkscape:current-layer="layer1"
     showgrid="false"
     inkscape:window-width="1920"
     inkscape:window-height="1018"
     inkscape:window-x="-8"
     inkscape:window-y="-8"
     inkscape:window-maximized="1" />
  <metadata
     id="metadata4630">
    <rdf:RDF>
      <cc:Work
         rdf:about="">
        <dc:format>image/svg+xml</dc:format>
        <dc:type
           rdf:resource="http://purl.org/dc/dcmitype/StillImage" />
        <dc:title></dc:title>
      </cc:Work>
    </rdf:RDF>
  </metadata>
  <g
     inkscape:label="Layer 1"
     inkscape:groupmode="layer"
     id="layer1"
     transform="translate(0,-230)">
    <path
       id="path4540"
       d="m 66.23001,263.86383 c 0,18.2667 -14.81656,33.10442 -33.10442,33.10442 C 14.83772,296.96825 0,282.13053 0,263.86383 c 0,-18.28786 14.83772,-33.10442 33.12559,-33.10442 18.28786,0 33.10442,14.81656 33.10442,33.10442 z"
       style="fill:#e6e6e6;fill-opacity:1;fill-rule:nonzero;stroke:none;stroke-width:0.26458332"
       inkscape:connector-curvature="0" />
    <path
       id="path4542"
       d="m 26.7333,274.65875 v 4.59313 c -7.42944,1.24883 -16.02305,3.85231 -16.02305,3.85231 v 5.07996 c 0.61383,0.5715 1.24883,1.10066 1.90499,1.62982 h 41.06303 c 0.65616,-0.52916 1.26999,-1.07949 1.86265,-1.62982 v -5.07996 c 0,0 -8.57243,-2.60348 -16.00188,-3.85231 v -4.59313 z"
       style="fill:#fbcaaa;fill-opacity:1;fill-rule:nonzero;stroke:#7a4d2f;stroke-width:0.06349953px;stroke-linecap:butt;stroke-linejoin:miter;stroke-miterlimit:4;stroke-dasharray:none;stroke-opacity:1"
       inkscape:connector-curvature="0" />
    <path
       id="path4544"
       d="m 43.22201,260.81585 c 0,0 0.3175,-1.41815 1.14299,-1.56632 0.42333,-0.0847 1.143,0.1905 1.37583,0.381 0,0 0.82549,0.48683 0.80432,2.01082 0,1.52399 -0.23283,3.00564 -1.67215,2.98448 -1.43932,0 -0.82549,0.127 -1.52399,0.0847 -0.69849,-0.0212 -0.127,-3.89464 -0.127,-3.89464 z"
       style="fill:#fbcaaa;fill-opacity:1;fill-rule:nonzero;stroke:none;stroke-width:0.26458332"
       inkscape:connector-curvature="0" />
    <path
       id="path4546"
       d="m 43.22201,260.81585 c 0,0 0.3175,-1.41815 1.14299,-1.56632 0.42333,-0.0847 1.143,0.1905 1.37583,0.381 0,0 0.82549,0.48683 0.80432,2.01082 0,1.52399 -0.23283,3.00564 -1.67215,2.98448 -1.43932,0 -0.82549,0.127 -1.52399,0.0847 -0.69849,-0.0212 -0.127,-3.89464 -0.127,-3.89464"
       style="fill:none;stroke:#7a4d2f;stroke-width:0.06349953px;stroke-linecap:butt;stroke-linejoin:miter;stroke-miterlimit:4;stroke-dasharray:none;stroke-opacity:1"
       inkscape:connector-curvature="0" />
    <path
       id="path4548"
       d="m 22.85983,260.87935 c 0,0 -0.88899,-1.48165 -1.14299,-1.56632 -0.40217,-0.16933 -1.14299,0.1905 -1.37583,0.381 0,0 -0.82549,0.48683 -0.80432,2.01082 0,1.52399 0.23283,3.00564 1.67215,2.98448 1.43932,0 0.8255,0.127 1.52399,0.10583 0.67733,-0.0423 0.127,-3.91581 0.127,-3.91581 z"
       style="fill:#fbcaaa;fill-opacity:1;fill-rule:nonzero;stroke:none;stroke-width:0.26458332"
       inkscape:connector-curvature="0" />
    <path
       id="path4550"
       d="m 22.85983,260.87935 c 0,0 -0.88899,-1.48165 -1.14299,-1.56632 -0.40217,-0.16933 -1.14299,0.1905 -1.37583,0.381 0,0 -0.82549,0.48683 -0.80432,2.01082 0,1.52399 0.23283,3.00564 1.67215,2.98448 1.43932,0 0.8255,0.127 1.52399,0.10583 0.67733,-0.0423 0.127,-3.91581 0.127,-3.91581"
       style="fill:none;stroke:#7a4d2f;stroke-width:0.06349953px;stroke-linecap:butt;stroke-linejoin:miter;stroke-miterlimit:4;stroke-dasharray:none;stroke-opacity:1"
       inkscape:connector-curvature="0" />
    <path
       id="path4552"
       d="m 25.84431,246.29563 13.41956,0.42333 c 2.73048,0.0847 4.9318,2.20132 4.9318,4.9318 0,0 0.0847,14.75305 -0.35983,17.6952 -0.44449,2.96331 -5.07996,7.95861 -10.71025,8.00094 -5.2493,-0.1905 -10.22343,-5.07996 -10.71026,-8.00094 -0.48683,-2.89981 -0.35983,-17.6952 -0.35983,-17.6952 0,-2.73048 1.05833,-5.4398 3.78881,-5.35513 z"
       style="fill:#fbcaaa;fill-opacity:1;fill-rule:nonzero;stroke:#7a4d2f;stroke-width:0.06349953px;stroke-linecap:butt;stroke-linejoin:miter;stroke-miterlimit:4;stroke-dasharray:none;stroke-opacity:1"
       inkscape:connector-curvature="0" />
    <path
       id="path4554"
       d="m 22.85983,260.87935 c -0.42333,-4.84713 -1.56632,-15.00705 2.62465,-13.37723 3.13264,2.32832 11.15475,2.15898 15.51505,0.88899 4.38147,-1.26999 1.84148,12.48824 2.13782,12.53058 0,0 0.95249,0.14816 1.03715,0.14816 0.16934,0.0212 0,-1.77799 1.016,-1.71449 0,0 2.70931,-9.31326 1.50282,-12.12841 -0.508,-1.16415 -1.26999,-2.47648 -1.92615,-3.02681 -1.14299,-0.71966 -14.13923,-2.51881 -11.00659,-3.8523 -1.90498,-0.65616 -7.59878,0.381 -10.47742,2.11665 -1.77799,1.07949 -3.06914,2.22248 -3.87347,3.28081 -0.97366,1.29116 1.16416,11.26058 1.43932,13.6524 0,0 1.03716,-0.52917 1.22766,1.73565 0.0212,0.14817 0.76199,-0.0423 0.78316,-0.254 z"
       style="fill:#563027;fill-opacity:1;fill-rule:nonzero;stroke:none;stroke-width:0.26458332"
       inkscape:connector-curvature="0" />
    <path
       id="path4556"
       d="m 35.3904,252.75141 c 0,0 1.60866,-0.25399 2.41298,-0.25399 0.80433,0 2.41299,0.25399 2.41299,0.25399 0.254,0.0423 0.46566,0.21167 0.46566,0.48683 v 0.8255 c 0,0.27516 -0.21166,0.50799 -0.46566,0.48683 0,0 -1.60866,-0.27517 -2.41299,-0.27517 -0.80432,0 -2.41298,0.27517 -2.41298,0.27517 -0.25399,0.0212 -0.46566,-0.21167 -0.46566,-0.48683 v -0.8255 c 0,-0.27516 0.21167,-0.44449 0.46566,-0.48683 z"
       style="fill:#563027;fill-opacity:1;fill-rule:nonzero;stroke:none;stroke-width:0.26458332"
       inkscape:connector-curvature="0" />
    <path
       id="path4558"
       d="m 25.86547,252.75141 c 0,0 1.58749,-0.25399 2.39182,-0.25399 0.82549,0 2.41298,0.25399 2.41298,0.25399 0.254,0.0423 0.48683,0.21167 0.48683,0.48683 v 0.8255 c 0,0.27516 -0.23283,0.50799 -0.48683,0.48683 0,0 -1.58749,-0.27517 -2.41298,-0.27517 -0.80433,0 -2.39182,0.27517 -2.39182,0.27517 -0.27516,0.0212 -0.48683,-0.21167 -0.48683,-0.48683 v -0.8255 c 0,-0.27516 0.21167,-0.44449 0.48683,-0.48683 z"
       style="fill:#563027;fill-opacity:1;fill-rule:nonzero;stroke:none;stroke-width:0.26458332"
       inkscape:connector-curvature="0" />
    <path
       id="path4560"
       d="m 38.45955,257.59854 c 0,0.78317 -0.33867,1.41816 -0.74083,1.41816 -0.42333,0 -0.76199,-0.63499 -0.76199,-1.41816 0,-0.78316 0.33866,-1.39699 0.76199,-1.39699 0.40216,0 0.74083,0.61383 0.74083,1.39699 z"
       style="fill:#333333;fill-opacity:1;fill-rule:nonzero;stroke:none;stroke-width:0.26458332"
       inkscape:connector-curvature="0" />
    <path
       id="path4562"
       d="m 38.26905,256.87888 c 0,0.1905 -0.16933,0.33867 -0.40217,0.33867 -0.21166,0 -0.38099,-0.14817 -0.38099,-0.33867 0,-0.1905 0.16933,-0.35983 0.38099,-0.35983 0.23284,0 0.40217,0.16933 0.40217,0.35983 z"
       style="fill:#f2f2f2;fill-opacity:1;fill-rule:nonzero;stroke:none;stroke-width:0.26458332"
       inkscape:connector-curvature="0" />
    <path
       id="path4564"
       d="m 28.99812,257.59854 c 0,0.78317 -0.33867,1.41816 -0.762,1.41816 -0.42333,0 -0.76199,-0.63499 -0.76199,-1.41816 0,-0.78316 0.33866,-1.39699 0.76199,-1.39699 0.42333,0 0.762,0.61383 0.762,1.39699 z"
       style="fill:#333333;fill-opacity:1;fill-rule:nonzero;stroke:none;stroke-width:0.26458332"
       inkscape:connector-curvature="0" />
    <path
       id="path4566"
       d="m 28.80762,256.87888 c 0,0.1905 -0.1905,0.33867 -0.40217,0.33867 -0.23283,0 -0.40216,-0.14817 -0.40216,-0.33867 0,-0.1905 0.16933,-0.35983 0.40216,-0.35983 0.21167,0 0.40217,0.16933 0.40217,0.35983 z"
       style="fill:#f2f2f2;fill-opacity:1;fill-rule:nonzero;stroke:none;stroke-width:0.26458332"
       inkscape:connector-curvature="0" />
    <path
       id="path4568"
       d="m 29.14628,267.6738 c 0,0 1.48166,0.635 3.97931,0.635 2.47648,0 3.95813,-0.635 3.95813,-0.635"
       style="fill:none;stroke:#7a4d2f;stroke-width:0.14816557px;stroke-linecap:butt;stroke-linejoin:miter;stroke-miterlimit:4;stroke-dasharray:none;stroke-opacity:1"
       inkscape:connector-curvature="0" />
    <path
       id="path4570"
       d="m 31.05127,271.35678 c 0,0 0.82549,-0.46567 2.22248,-0.46567 1.39699,0 2.22249,0.46567 2.22249,0.46567"
       style="fill:none;stroke:#7a4d2f;stroke-width:0.06349953px;stroke-linecap:butt;stroke-linejoin:miter;stroke-miterlimit:4;stroke-dasharray:none;stroke-opacity:1"
       inkscape:connector-curvature="0" />
    <path
       id="path4572"
       d="m 31.0301,263.86383 c 0,0 0.14817,1.29116 2.09549,1.29116 1.94732,0 2.09548,-1.29116 2.09548,-1.29116"
       style="fill:none;stroke:#7a4d2f;stroke-width:0.06349953px;stroke-linecap:butt;stroke-linejoin:miter;stroke-miterlimit:4;stroke-dasharray:none;stroke-opacity:1"
       inkscape:connector-curvature="0" />
    <path
       id="path4574"
       d="m 21.06068,280.37371 c -5.07997,0.93132 -8.55127,1.71449 -13.9275704,4.00047 6.2864604,7.95861 15.8537204,12.59407 25.9924804,12.59407 10.09642,-0.0212 19.66368,-4.65663 25.92897,-12.5729 -4.00047,-1.77799 -9.46143,-3.38665 -13.96989,-4.02164 -11.95908,9.44026 -11.95908,9.44026 -24.02399,0 z"
       style="fill:#80b3ff;fill-opacity:1;fill-rule:nonzero;stroke:#405980;stroke-width:0.06349953px;stroke-linecap:butt;stroke-linejoin:miter;stroke-miterlimit:4;stroke-dasharray:none;stroke-opacity:1"
       inkscape:connector-curvature="0" />
  </g>
</svg>
