<?xml version="1.0" encoding="UTF-8" standalone="no"?>
<!-- Created with Inkscape (http://www.inkscape.org/) -->

<svg
   xmlns:dc="http://purl.org/dc/elements/1.1/"
   xmlns:cc="http://creativecommons.org/ns#"
   xmlns:rdf="http://www.w3.org/1999/02/22-rdf-syntax-ns#"
   xmlns:svg="http://www.w3.org/2000/svg"
   xmlns="http://www.w3.org/2000/svg"
   xmlns:sodipodi="http://sodipodi.sourceforge.net/DTD/sodipodi-0.dtd"
   xmlns:inkscape="http://www.inkscape.org/namespaces/inkscape"
   width="935mm"
   height="694mm"
   viewBox="0 0 935 694"
   version="1.1"
   id="svg8"
   sodipodi:docname="header.svg"
   inkscape:version="0.92.1 r15371">
  <defs
     id="defs2" />
  <sodipodi:namedview
     id="base"
     pagecolor="#ffffff"
     bordercolor="#666666"
     borderopacity="1.0"
     inkscape:pageopacity="0.0"
     inkscape:pageshadow="2"
     inkscape:zoom="0.125"
     inkscape:cx="1133.8846"
     inkscape:cy="900.75143"
     inkscape:document-units="mm"
     inkscape:current-layer="layer1"
     showgrid="false"
     inkscape:snap-smooth-nodes="true"
     inkscape:snap-intersection-paths="true"
     inkscape:object-paths="true"
     inkscape:snap-midpoints="true"
     inkscape:snap-object-midpoints="true"
     showguides="false"
     inkscape:object-nodes="false"
     inkscape:snap-bbox="true"
     inkscape:snap-bbox-edge-midpoints="true"
     inkscape:bbox-nodes="true"
     inkscape:window-width="1920"
     inkscape:window-height="1018"
     inkscape:window-x="-8"
     inkscape:window-y="-8"
     inkscape:window-maximized="1"
     inkscape:snap-bbox-midpoints="true"
     inkscape:snap-center="true"
     inkscape:measure-start="-4076.92,480.692"
     inkscape:measure-end="-4076.92,460.406" />
  <metadata
     id="metadata5">
    <rdf:RDF>
      <cc:Work
         rdf:about="">
        <dc:format>image/svg+xml</dc:format>
        <dc:type
           rdf:resource="http://purl.org/dc/dcmitype/StillImage" />
        <dc:title></dc:title>
      </cc:Work>
    </rdf:RDF>
  </metadata>
  <g
     inkscape:label="Layer 1"
     inkscape:groupmode="layer"
     id="layer1"
     transform="translate(0,397)">
    <path
       style="fill:#4d4d4d;fill-opacity:1;stroke:none;stroke-width:1.17630529;stroke-miterlimit:4;stroke-dasharray:none;stroke-opacity:1"
       d="m 0,-396.55292 h 646.28716 l 95.84387,191.35346 H 0 Z"
       id="rect4546-4"
       inkscape:connector-curvature="0"
       sodipodi:nodetypes="ccccc" />
    <path
       style="fill:#4d4d4d;fill-opacity:1;stroke:none;stroke-width:1.17630529;stroke-miterlimit:4;stroke-dasharray:none;stroke-opacity:1"
       d="M 741.06662,-181.59992 H 97.24192 L 1.06441,9.75354 h 740.00221 z"
       id="rect4546-6-2"
       inkscape:connector-curvature="0"
       sodipodi:nodetypes="ccccc" />
    <path
       style="fill:#4d4d4d;fill-opacity:1;stroke:none;stroke-width:1.17630529;stroke-miterlimit:4;stroke-dasharray:none;stroke-opacity:1"
       d="m 1.06441,26.054 h 933.8353 L 798.71761,297 H 136.77405 Z"
       id="rect4546-0-2"
       inkscape:connector-curvature="0"
       sodipodi:nodetypes="ccccc" />
    <rect
       style="fill:#e6e6e6;fill-opacity:1;stroke:none;stroke-width:3.66780281;stroke-miterlimit:4;stroke-dasharray:none;stroke-opacity:1"
       id="rect4579-7"
       width="234.08658"
       height="151.39891"
       x="487.00272"
       y="-161.61826" />
    <rect
       style="fill:#e6e6e6;fill-opacity:1;stroke:none;stroke-width:1.05857825;stroke-miterlimit:4;stroke-dasharray:none;stroke-opacity:1"
       id="rect4579-7-2"
       width="634.84393"
       height="4.6501431"
       x="156.04041"
       y="209.27515" />
    <flowRoot
       xml:space="preserve"
       id="flowRoot4675"
       style="font-style:normal;font-weight:normal;font-size:40px;line-height:1.25;font-family:sans-serif;letter-spacing:0px;word-spacing:0px;fill:#e6e6e6;fill-opacity:1;stroke:none"
       transform="matrix(0.98490754,0,0,0.98490754,5368.0429,-389.66078)"><flowRegion
         id="flowRegion4677"
         style="fill:#e6e6e6;fill-opacity:1"><rect
           id="rect4679"
           width="638.41638"
           height="278.80209"
           x="-5345.7271"
           y="225.50423"
           style="fill:#e6e6e6;fill-opacity:1" /></flowRegion><flowPara
         id="flowPara4681">Pokój</flowPara></flowRoot>    <g
       id="g4731"
       transform="matrix(1.6858895,0,0,1.6849053,1843.9642,-769.19116)">
      <circle
         r="44.901279"
         cy="277.92224"
         cx="-1037.0059"
         id="path4683-5-6"
         style="fill:#e6e6e6;fill-opacity:1;stroke:none;stroke-width:0.31599998;stroke-miterlimit:4;stroke-dasharray:none;stroke-opacity:1" />
      <path
         id="path4683-5"
         transform="scale(0.26458333)"
         d="m -3952.1426,1105.7852 v 23.5976 c -38.0957,6.4004 -82.0605,19.707 -82.0605,19.707 v 26.0137 a 169.70562,169.70562 0 0 0 9.7207,8.3301 h 210.4629 a 169.70562,169.70562 0 0 0 9.5312,-8.3535 v -25.9903 c 0,0 -43.9648,-13.3066 -82.0605,-19.707 v -23.5976 z"
         style="fill:#fbcaaa;fill-opacity:1;stroke:#7a4d2f;stroke-width:0.37795275;stroke-miterlimit:4;stroke-dasharray:none;stroke-opacity:1"
         inkscape:connector-curvature="0" />
      <path
         sodipodi:nodetypes="csczzzc"
         inkscape:connector-curvature="0"
         id="path4726-1"
         d="m -1023.304,273.78134 c 0,0 0.4106,-1.9193 1.5377,-2.12678 0.5762,-0.10601 1.5544,0.2599 1.8756,0.53039 0,0 1.1029,0.66148 1.0941,2.73462 0,2.07316 -0.3161,4.06239 -2.276,4.04803 -1.96,-0.0147 -1.118,0.17391 -2.0594,0.12237 -0.9414,-0.0515 -0.171,-5.30621 -0.171,-5.30621"
         style="fill:#fbcaaa;fill-opacity:1;stroke:#7a4d2f;stroke-width:0.10014678;stroke-linecap:butt;stroke-linejoin:miter;stroke-miterlimit:4;stroke-dasharray:none;stroke-opacity:1" />
      <path
         sodipodi:nodetypes="csczzzc"
         inkscape:connector-curvature="0"
         id="path4726"
         d="m -1050.9264,273.86808 c 0,0 -1.2084,-1.98955 -1.5376,-2.12678 -0.5408,-0.22521 -1.5545,0.25989 -1.8757,0.53039 0,0 -1.1028,0.66148 -1.094,2.73462 0,2.07316 0.316,4.06239 2.276,4.04803 1.9599,-0.0147 1.118,0.17391 2.0593,0.12237 0.9414,-0.0515 0.171,-5.30622 0.171,-5.30622"
         style="fill:#fbcaaa;fill-opacity:1;stroke:#7a4d2f;stroke-width:0.10014678;stroke-linecap:butt;stroke-linejoin:miter;stroke-miterlimit:4;stroke-dasharray:none;stroke-opacity:1" />
      <path
         sodipodi:nodetypes="ssszczss"
         inkscape:connector-curvature="0"
         id="rect4711"
         d="m -1046.8602,254.10233 18.1764,0.57704 c 3.7062,0.11773 6.6935,2.98532 6.6935,6.69354 0,0 0.1148,19.99868 -0.4898,24.00442 -0.6057,4.00575 -6.8942,10.77025 -14.513,10.84812 -7.1309,-0.25664 -13.8527,-6.90184 -14.5149,-10.84812 -0.6622,-3.94627 -0.4878,-24.00442 -0.4878,-24.00442 0,-3.70822 1.4292,-7.38822 5.1356,-7.27058 z"
         style="fill:#fbcaaa;fill-opacity:1;stroke:#7a4d2f;stroke-width:0.10014678;stroke-miterlimit:4;stroke-dasharray:none;stroke-opacity:1" />
      <path
         sodipodi:nodetypes="cczsssscccscszc"
         inkscape:connector-curvature="0"
         id="path4714"
         d="m -1050.9274,273.87049 c -0.5652,-6.5568 -2.125,-20.34696 3.5652,-18.12446 4.2565,3.1362 15.1181,2.92414 21.0482,1.20183 5.9302,-1.7223 2.4907,16.94144 2.8852,16.97908 0,0 1.3078,0.20616 1.3967,0.21251 0.2394,0.0171 0.024,-2.41124 1.3981,-2.31342 0,0 3.6622,-12.64734 2.0284,-16.45357 -0.6852,-1.59627 -1.7194,-3.37072 -2.5977,-4.13257 -1.5721,-0.94878 -19.1752,-3.41584 -14.9339,-5.22315 -2.5698,-0.88781 -10.3016,0.52021 -14.2159,2.87275 -2.4082,1.45982 -4.1356,3.03164 -5.2299,4.46838 -1.3261,1.74109 1.564,15.26137 1.9353,18.52488 0,0 1.4155,-0.74126 1.6822,2.33389 0.024,0.21812 1.0161,-0.0381 1.0393,-0.34637 z"
         style="fill:#563027;fill-opacity:1;stroke:none;stroke-width:0.64627236px;stroke-linecap:butt;stroke-linejoin:miter;stroke-opacity:1" />
      <path
         sodipodi:nodetypes="szsssszssss"
         inkscape:connector-curvature="0"
         id="rect4743"
         d="m -1033.9207,262.8658 c 0,0 2.1673,-0.36174 3.2608,-0.36167 1.0936,7e-5 3.2607,0.36209 3.2607,0.36209 0.3546,0.0393 0.6441,0.28725 0.6441,0.64409 v 1.12716 c 0,0.35682 -0.2895,0.68345 -0.6441,0.64407 0,0 -2.1671,-0.36199 -3.2607,-0.36207 -1.0935,-7e-5 -3.2608,0.36168 -3.2608,0.36168 -0.3547,0.0393 -0.6442,-0.28725 -0.6442,-0.64407 v -1.12716 c 0,-0.35684 0.2895,-0.60476 0.6442,-0.64412 z"
         style="fill:#563027;fill-opacity:1;stroke:none;stroke-width:0.38076255;stroke-miterlimit:4;stroke-dasharray:none;stroke-opacity:1" />
      <path
         sodipodi:nodetypes="szsssszssss"
         inkscape:connector-curvature="0"
         id="rect4743-1"
         d="m -1046.8463,262.8658 c 0,0 2.1673,-0.36174 3.2609,-0.36167 1.0936,7e-5 3.2606,0.36209 3.2606,0.36209 0.3547,0.0393 0.6441,0.28725 0.6441,0.64409 v 1.12716 c 0,0.35682 -0.2894,0.68345 -0.6441,0.64407 0,0 -2.167,-0.36199 -3.2606,-0.36207 -1.0936,-7e-5 -3.2609,0.36168 -3.2609,0.36168 -0.3546,0.0393 -0.6441,-0.28725 -0.6441,-0.64407 v -1.12716 c 0,-0.35684 0.2895,-0.60476 0.6441,-0.64412 z"
         style="fill:#563027;fill-opacity:1;stroke:none;stroke-width:0.38076255;stroke-miterlimit:4;stroke-dasharray:none;stroke-opacity:1" />
      <ellipse
         ry="1.9136188"
         rx="1.0282131"
         cy="269.4364"
         cx="-1030.7823"
         id="path4791"
         style="fill:#333333;fill-opacity:1;stroke:none;stroke-width:0.77186292;stroke-miterlimit:4;stroke-dasharray:none;stroke-opacity:1" />
      <ellipse
         ry="0.46802145"
         rx="0.54350883"
         cy="268.43866"
         cx="-1030.5566"
         id="path4795"
         style="fill:#f2f2f2;fill-opacity:1;stroke:none;stroke-width:0.40800324;stroke-miterlimit:4;stroke-dasharray:none;stroke-opacity:1" />
      <ellipse
         ry="1.9136189"
         rx="1.0282131"
         cy="269.4364"
         cx="-1043.6349"
         id="path4791-4"
         style="fill:#333333;fill-opacity:1;stroke:none;stroke-width:0.77186292;stroke-miterlimit:4;stroke-dasharray:none;stroke-opacity:1" />
      <ellipse
         ry="0.46802145"
         rx="0.54350883"
         cy="268.43866"
         cx="-1043.4092"
         id="path4795-0"
         style="fill:#f2f2f2;fill-opacity:1;stroke:none;stroke-width:0.40800324;stroke-miterlimit:4;stroke-dasharray:none;stroke-opacity:1" />
      <path
         sodipodi:nodetypes="czc"
         inkscape:connector-curvature="0"
         id="path4815"
         d="m -1042.3861,283.08146 c 0,0 2.0017,0.87352 5.3803,0.87352 3.3789,0 5.3804,-0.87352 5.3804,-0.87352"
         style="fill:none;stroke:#7a4d2f;stroke-width:0.19021751px;stroke-linecap:butt;stroke-linejoin:miter;stroke-opacity:1" />
      <path
         sodipodi:nodetypes="czc"
         inkscape:connector-curvature="0"
         id="path4815-1"
         d="m -1039.8096,288.08494 c 0,0 1.1189,-0.61341 3.0076,-0.61341 1.8886,0 3.0073,0.61341 3.0073,0.61341"
         style="fill:none;stroke:#7a4d2f;stroke-width:0.09547198px;stroke-linecap:butt;stroke-linejoin:miter;stroke-opacity:1" />
      <path
         sodipodi:nodetypes="czc"
         inkscape:connector-curvature="0"
         id="path4815-8"
         d="m -1039.8463,277.92805 c 0,0 0.2028,1.75086 2.8405,1.75086 2.6368,0 2.8405,-1.75086 2.8405,-1.75086"
         style="fill:none;stroke:#7a4d2f;stroke-width:0.10042205px;stroke-linecap:butt;stroke-linejoin:miter;stroke-opacity:1" />
      <path
         id="path4683"
         transform="scale(0.26458333)"
         d="m -3981.1992,1135.0566 c -25.9934,4.8086 -43.7789,8.7961 -71.3477,20.543 a 169.70562,169.70562 0 0 0 133.1543,64.5215 169.70562,169.70562 0 0 0 132.8711,-64.4199 c -20.461,-9.1342 -48.4987,-17.3433 -71.6172,-20.6446 -61.2072,48.3777 -61.2067,48.3777 -123.0605,0 z"
         style="fill:#80b3ff;fill-opacity:1;stroke:#405980;stroke-width:0.37795275;stroke-miterlimit:4;stroke-dasharray:none;stroke-opacity:1"
         inkscape:connector-curvature="0" />
    </g>
    <flowRoot
       xml:space="preserve"
       id="flowRoot4675-4"
       style="font-style:normal;font-weight:normal;font-size:40px;line-height:1.25;font-family:sans-serif;letter-spacing:0px;word-spacing:0px;fill:#e6e6e6;fill-opacity:1;stroke:none"
       transform="matrix(0.98490754,0,0,0.98815939,5610.6948,10.73824)"><flowRegion
         id="flowRegion4677-2"
         style="fill:#e6e6e6;fill-opacity:1"><rect
           id="rect4679-1"
           width="638.41638"
           height="278.80209"
           x="-5345.7271"
           y="225.50423"
           style="fill:#e6e6e6;fill-opacity:1" /></flowRegion><flowPara
         id="flowPara4681-2">NS</flowPara></flowRoot>    <flowRoot
       xml:space="preserve"
       id="flowRoot4675-4-3"
       style="font-style:normal;font-weight:normal;font-size:40px;line-height:1.25;font-family:sans-serif;letter-spacing:0px;word-spacing:0px;fill:#e6e6e6;fill-opacity:1;stroke:none"
       transform="matrix(0.98490754,0,0,0.98815942,5832.7935,10.73824)"><flowRegion
         id="flowRegion4677-2-6"
         style="fill:#e6e6e6;fill-opacity:1"><rect
           id="rect4679-1-2"
           width="638.41638"
           height="278.80209"
           x="-5345.7271"
           y="225.50423"
           style="fill:#e6e6e6;fill-opacity:1" /></flowRegion><flowPara
         id="flowPara4681-2-1">WE</flowPara></flowRoot>    <flowRoot
       xml:space="preserve"
       id="flowRoot4675-8"
       style="font-style:normal;font-weight:normal;font-size:40px;line-height:1.25;font-family:sans-serif;letter-spacing:0px;word-spacing:0px;fill:#e6e6e6;fill-opacity:1;stroke:none"
       transform="matrix(0.98490754,0,0,0.98490754,5459.3976,-321.42661)"><flowRegion
         id="flowRegion4677-8"
         style="fill:#e6e6e6;fill-opacity:1"><rect
           id="rect4679-15"
           width="638.41638"
           height="278.80209"
           x="-5345.7271"
           y="225.50423"
           style="fill:#e6e6e6;fill-opacity:1" /></flowRegion><flowPara
         id="flowPara4681-8">Kontrakt</flowPara></flowRoot>    <rect
       style="fill:#e6e6e6;fill-opacity:1;stroke:none;stroke-width:0.77968293;stroke-miterlimit:4;stroke-dasharray:none;stroke-opacity:1"
       id="rect4579-7-2-2"
       width="344.3952"
       height="4.6501431"
       x="104.4006"
       y="-108.73845" />
    <flowRoot
       xml:space="preserve"
       id="flowRoot4675-0"
       style="font-style:normal;font-weight:normal;font-size:40px;line-height:1.25;font-family:sans-serif;letter-spacing:0px;word-spacing:0px;fill:#e6e6e6;fill-opacity:1;stroke:none"
       transform="matrix(0.98490754,0,0,0.98490754,5586.8216,-185.25452)"><flowRegion
         id="flowRegion4677-4"
         style="fill:#e6e6e6;fill-opacity:1"><rect
           id="rect4679-5"
           width="638.41638"
           height="278.80209"
           x="-5345.7271"
           y="225.50423"
           style="fill:#e6e6e6;fill-opacity:1" /></flowRegion><flowPara
         id="flowPara4681-0">Zagrywa gracz</flowPara></flowRoot>    <flowRoot
       xml:space="preserve"
       id="flowRoot4675-4-36"
       style="font-style:normal;font-weight:normal;font-size:40px;line-height:1.25;font-family:sans-serif;letter-spacing:0px;word-spacing:0px;fill:#e6e6e6;fill-opacity:1;stroke:none"
       transform="matrix(0.98490754,0,0,0.98815942,5417.0777,10.73824)"><flowRegion
         id="flowRegion4677-2-2"
         style="fill:#e6e6e6;fill-opacity:1"><rect
           id="rect4679-1-0"
           width="638.41638"
           height="278.80209"
           x="-5345.7271"
           y="225.50423"
           style="fill:#e6e6e6;fill-opacity:1" /></flowRegion><flowPara
         id="flowPara4681-2-9">Lewy:</flowPara></flowRoot>  </g>
</svg>
